<svg xmlns="http://www.w3.org/2000/svg" width="998" height="312" viewBox="0 0 998 312">
  <g id="Group_64" data-name="Group 64" transform="translate(-490 -772)">
    <g id="Rectangle_39" data-name="Rectangle 39" transform="translate(644 834)" fill="#fefcf8" stroke="#191616" stroke-width="6">
      <path d="M70,0H754a90,90,0,0,1,90,90v98a0,0,0,0,1,0,0H70A70,70,0,0,1,0,118V70A70,70,0,0,1,70,0Z" stroke="none"/>
      <path d="M70,3H754a87,87,0,0,1,87,87v95a0,0,0,0,1,0,0H70A67,67,0,0,1,3,118V70A67,67,0,0,1,70,3Z" fill="none"/>
    </g>
    <g id="Group_27" data-name="Group 27" transform="translate(875 -139)">
      <g id="Ellipse_4" data-name="Ellipse 4" transform="translate(-385 911)" fill="#fff" stroke="#452214" stroke-width="7">
        <ellipse cx="143" cy="156" rx="143" ry="156" stroke="none"/>
        <ellipse cx="143" cy="156" rx="139.5" ry="152.5" fill="none"/>
      </g>
      <g id="Ellipse_5" data-name="Ellipse 5" transform="translate(-356 941)" fill="#d99967" stroke="#707070" stroke-width="1">
        <ellipse cx="114" cy="125" rx="114" ry="125" stroke="none"/>
        <ellipse cx="114" cy="125" rx="113.5" ry="124.5" fill="none"/>
      </g>
      <text id="_" data-name="+" transform="translate(-314 1132)" fill="#fffcfb" font-size="205" font-family="SegoeUI-Bold, Segoe UI" font-weight="700"><tspan x="0" y="0">+</tspan></text>
    </g>
    <text id="Save_Now" data-name="Save Now" transform="translate(812 968)" fill="#d99967" font-size="98" font-family="SegoeUI-Bold, Segoe UI" font-weight="700"><tspan x="0" y="0">Save Now</tspan></text>
  </g>
</svg>
